<svg width="155" height="62" viewBox="0 0 155 62" fill="none" xmlns="http://www.w3.org/2000/svg">
<path d="M125.603 11.0789V2.72462H123.901L120.459 8.42157V2.72462H118.773V11.0795H120.459H120.476L123.901 5.40879V11.0795H125.603V11.0789ZM119.996 1.16628C121.278 2.13573 123.1 2.13573 124.383 1.16628L123.686 0.141602C122.762 0.811414 121.617 0.811414 120.692 0.141602L119.996 1.16628Z" fill="#231F20"/>
<path d="M70.5944 8.30567V5.42138C70.5944 3.6066 69.6249 2.57153 67.827 2.57153C67.1478 2.57153 65.9809 2.84219 65.5052 3.23314C65.351 2.97397 65.1952 2.7044 64.8441 2.57591L63.7734 3.56286C64.1803 3.83406 64.1934 4.37046 64.1934 4.60667V13.7692H65.9301V10.8493C66.455 11.1074 67.284 11.2091 67.6908 11.2091C69.3187 11.2091 70.5944 10.1883 70.5944 8.30567ZM68.8413 8.48611C68.8413 9.21552 68.1151 9.65733 67.4535 9.65733C66.9105 9.65733 66.2691 9.43697 65.9301 9.19912V4.85054V4.69744C66.32 4.30648 67.0981 4.08722 67.5552 4.08722C68.2168 4.08722 68.8413 4.56347 68.8413 5.29015V8.48611Z" fill="#231F20"/>
<path d="M86.2575 11.08V2.70489H80.5204V7.89115C80.522 8.94535 79.8625 9.82568 78.9423 9.85083C78.5163 9.86286 77.8628 9.57798 77.8628 8.93168V5.40437C77.8628 3.67434 76.9447 2.57202 74.9937 2.57202C73.671 2.57202 72.6358 3.13138 72.0759 3.70933L72.9918 4.83407C73.5682 4.27416 74.3993 4.05326 74.8237 4.05326C75.4005 4.05326 76.1267 4.30806 76.1267 5.08833V5.97904H74.7044C72.6697 5.97904 71.8184 7.27109 71.8184 8.62876C71.8184 9.93449 72.5336 11.2096 74.5858 11.2096C75.2141 11.2096 76.0228 10.8925 76.5193 10.4053C77.3472 11.1538 78.1116 11.29 78.9827 11.2632C80.9562 11.1997 82.2215 10.1357 82.1723 7.8321V4.13637H84.5586L84.558 11.0795H86.2575V11.08ZM76.1278 9.15641C75.7144 9.69281 74.9587 9.84481 74.3829 9.74256C73.9384 9.66219 73.5676 9.21218 73.5583 8.73211C73.5463 8.11314 73.9367 7.44388 74.8439 7.44279L76.1278 7.44169V9.15641Z" fill="#231F20"/>
<path d="M109.201 11.0872L106.095 6.66648L108.998 2.72416H107.022L104.847 6.0005H103.78V2.70557H102.078V11.0872H103.746L103.762 7.43253H104.823L107.219 11.0872H109.201Z" fill="#231F20"/>
<path d="M88.0156 11.0977V2.70508H89.7501V5.54891H90.9783C93.0135 5.54891 94.0924 6.79121 94.0754 8.21996C94.0579 9.64925 93.0518 11.0988 91.0007 11.0988L88.0156 11.0977ZM89.7501 9.64761L91.2101 9.64925C91.9773 9.6498 92.2808 8.8083 92.2819 8.24894C92.283 7.68848 91.9604 6.98094 91.1839 6.98094H89.7496V9.64761H89.7501Z" fill="#231F20"/>
<path d="M100.972 10.1375L100.259 8.8766C99.2757 9.57211 98.6819 9.77606 98.1892 9.77606C97.4947 9.77606 96.8014 9.4201 96.8014 8.69069V5.44388C96.8014 4.69806 97.4942 4.17151 98.2914 4.17151C98.8011 4.17151 99.4961 4.47771 100.005 5.02012L100.905 3.87788C100.294 3.13152 99.4288 2.58911 98.0886 2.58911C96.3748 2.58911 95.0488 3.64058 95.0488 5.45481V8.59336C95.0488 10.3748 96.4257 11.2086 98.1225 11.2086C99.5294 11.2092 100.48 10.5443 100.972 10.1375Z" fill="#231F20"/>
<path d="M117.016 11.0789V2.72461H115.313L111.872 8.42157V2.72461H110.186V11.0789H111.872H111.888L115.313 5.40878V11.0789H117.016Z" fill="#231F20"/>
<path d="M63.7319 0.141113H61.7896L60.2902 5.12342C60.2623 5.21583 60.2251 5.31589 60.2044 5.41322C60.1836 5.51164 60.1633 5.59694 60.1535 5.66474C60.1437 5.7309 60.1365 5.77027 60.1365 5.77191C60.1365 5.77027 60.1311 5.73528 60.1191 5.67021C60.1081 5.60514 60.089 5.52039 60.0676 5.42525C60.0469 5.32956 60.0223 5.23059 59.9829 5.14092L57.7677 0.14166H55.791L59.3404 7.93554L59.1162 8.50092C58.8313 9.12535 58.0844 9.81375 56.7474 9.86952L56.959 11.2206C58.9254 11.2644 60.2197 10.3917 60.7205 8.93069L63.7319 0.141113Z" fill="#231F20"/>
<path d="M148.374 25.2461V16.8929H146.672L143.23 22.5888V16.8929H141.545V25.2456H143.23H143.247L146.672 19.5771V25.2456H148.374V25.2461ZM142.766 15.3335C144.049 16.3029 145.871 16.3029 147.153 15.3335L146.455 14.3093C145.533 14.9786 144.387 14.9786 143.464 14.3093L142.766 15.3335Z" fill="#231F20"/>
<path d="M139.787 16.8931H138.084V25.2458H139.787V16.8931Z" fill="#231F20"/>
<path d="M131.088 25.2844V16.8923H132.825L132.824 19.7362H134.053C136.089 19.7362 137.166 20.979 137.149 22.4061C137.132 23.8354 136.126 25.2849 134.075 25.2839H131.088V25.2844ZM132.824 23.8343L134.283 23.836C135.05 23.8365 135.354 22.9945 135.355 22.4356C135.356 21.8757 135.035 21.1682 134.258 21.1682H132.825V23.8343H132.824Z" fill="#231F20"/>
<path d="M65.616 22.4756V19.5919C65.616 17.7777 64.7793 16.7421 62.9814 16.7421C62.4969 16.7421 61.9692 16.8815 61.5996 17.1024V15.5271H59.8635V17.1024C59.4944 16.8809 58.9661 16.7421 58.4822 16.7421C56.6848 16.7421 55.8477 17.7782 55.8477 19.5919V22.4756C55.8477 24.3582 56.9899 25.3791 58.6178 25.3791C59.0252 25.3791 59.6825 25.1817 59.8635 25.0193V27.9408H61.5996V25.0193C61.7811 25.1817 62.4379 25.3791 62.8458 25.3791C64.4737 25.3791 65.616 24.3582 65.616 22.4756ZM59.864 18.7723V18.7777V18.781V18.7848V18.7892V18.7936V18.798V18.8023V18.8062V18.8116V18.8149V18.8198V18.8248V18.8291V18.8335V18.8373V18.8423V18.8466V18.8526V18.857V18.8614V18.8658V18.8712V18.8762V18.88V18.8838V18.8893V18.8937V18.898V18.903V18.9068V18.9122V18.9161V18.9215V18.9259V18.9308V18.9341V18.939V18.9434V18.9472V18.9511V18.956V18.9587V18.9626V18.9669V18.9702V18.9751V18.979V18.9817V18.985V18.9872V18.991V18.9943V18.997V18.9997V19.003V19.0052V19.0074V19.009V19.0129V19.0145V19.0161V19.0183V19.02V19.0211V23.3696C59.6967 23.6272 59.3987 23.8278 58.8562 23.8278C58.1946 23.8278 57.5996 23.386 57.5996 22.6572V19.4618C57.5996 18.7334 58.0923 18.2583 58.7534 18.2583C59.2117 18.2588 59.7224 18.5158 59.864 18.7723ZM63.8629 22.6572C63.8629 23.3855 63.2701 23.8278 62.6085 23.8278C62.0655 23.8278 61.7664 23.6266 61.6001 23.3696V19.0211V19.02V19.0183V19.0161V19.0145V19.0129V19.009V19.0074V19.0052V19.003V18.9997V18.997V18.9943V18.9899V18.9861V18.9839V18.9806V18.9779V18.974V18.9691V18.9658V18.9615V18.9576V18.9549V18.95V18.9462V18.9423V18.9379V18.933V18.9297V18.9248V18.9205V18.915V18.9112V18.9057V18.9019V18.8969V18.8926V18.8882V18.8827V18.8789V18.8751V18.8701V18.8647V18.8603V18.8559V18.8532V18.8472V18.8428V18.8379V18.8341V18.8297V18.8253V18.8204V18.8155V18.8122V18.8067V18.8029V18.7985V18.7941V18.7898V18.7854V18.7816V18.7783V18.7728C61.7412 18.5164 62.2519 18.2588 62.7102 18.2588C63.3713 18.2588 63.8629 18.7345 63.8629 19.4623V22.6572Z" fill="#231F20"/>
<path d="M73.3923 24.2741L72.6602 22.9629C71.8301 23.6414 71.0181 23.8612 70.3389 23.8612C69.5078 23.8612 68.8658 23.4041 68.8658 22.5052V21.7293H73.2081V19.6947C73.2081 17.5732 71.8662 16.759 70.2536 16.759C68.4054 16.759 67.1133 17.7099 67.1133 19.7959V22.5768C67.1133 24.4425 68.3376 25.3786 70.2033 25.3786C71.5775 25.3791 72.4092 24.9351 73.3923 24.2741ZM71.4561 19.2578V20.2978H68.8658V19.377C68.8658 18.6301 69.5078 18.2064 70.2536 18.2064C70.713 18.2069 71.4561 18.5137 71.4561 19.2578Z" fill="#231F20"/>
<path d="M81.5492 23.8383V16.8953H75.8115V21.5118C75.8136 22.5654 75.1968 23.8116 74.2749 23.8383H74.1152V27.2973H75.7688V25.2704H80.8028V27.2973H82.5001V23.8383H81.5492ZM76.7908 23.8383C77.2179 23.3714 77.4842 22.4807 77.465 21.5697V18.3273H79.8524L79.8519 23.8383H76.7908Z" fill="#231F20"/>
<path d="M129.33 25.2463V16.8931H127.629V20.1568H124.187V16.8931H122.5V25.2463H124.187V21.5872H127.629V25.2463H129.33Z" fill="#231F20"/>
<path d="M97.7532 22.4931V19.6094C97.7532 17.7951 96.7831 16.7595 94.9852 16.7595C94.3071 16.7595 93.1386 17.0302 92.6634 17.4206C92.5103 17.1614 92.3539 16.8924 92.0029 16.7634L90.9316 17.7503C91.339 18.0215 91.3527 18.5579 91.3527 18.7947V27.9566H93.0877V25.0362C93.6143 25.2937 94.4427 25.396 94.8496 25.396C96.4774 25.396 97.7532 24.3757 97.7532 22.4931ZM96.0001 22.6741C96.0001 23.4024 95.2734 23.8448 94.6112 23.8448C94.0682 23.8448 93.4268 23.6239 93.0866 23.386V19.0374V18.8843C93.4771 18.4939 94.2546 18.273 94.7134 18.273C95.3751 18.273 95.9995 18.7498 95.9995 19.4776V22.6741H96.0001Z" fill="#231F20"/>
<path d="M113.416 25.2665V16.8924H107.678V22.0793C107.681 23.1329 107.021 24.0127 106.101 24.0384C105.675 24.0504 105.022 23.7661 105.022 23.1187V19.5914C105.022 17.8619 104.103 16.759 102.152 16.759C100.829 16.759 99.7949 17.3178 99.2361 17.8958L100.151 19.0205C100.728 18.4606 101.559 18.2403 101.983 18.2403C102.561 18.2403 103.287 18.4951 103.287 19.2742V20.1661H101.865C99.8304 20.1661 98.9785 21.4576 98.9785 22.8152C98.9785 24.121 99.6932 25.3955 101.746 25.3955C102.374 25.3955 103.182 25.0784 103.681 24.5917C104.507 25.3403 105.273 25.4764 106.143 25.4485C108.116 25.3862 109.382 24.3216 109.332 22.0197V18.3234H111.719L111.719 25.2654H113.416V25.2665ZM103.285 23.3445C102.646 24.1724 100.743 24.2795 100.716 22.9197C100.705 22.3013 101.095 21.632 102.002 21.6309L103.286 21.6293V23.3445H103.285Z" fill="#231F20"/>
<path d="M115.174 25.2844V16.8923H116.909L116.908 19.7362H118.136C120.172 19.7362 121.251 20.979 121.234 22.4061C121.216 23.8354 120.21 25.2849 118.159 25.2839H115.174V25.2844ZM116.909 23.8343L118.368 23.836C119.135 23.8365 119.439 22.9945 119.44 22.4356C119.441 21.8757 119.119 21.1682 118.342 21.1682H116.909V23.8343Z" fill="#231F20"/>
<path d="M89.8884 24.2741L89.1563 22.9629C88.3246 23.6414 87.5136 23.8612 86.8345 23.8612C86.0033 23.8612 85.3625 23.4041 85.3625 22.5052V21.7293H89.7047V19.6947C89.7047 17.5732 88.3617 16.759 86.7508 16.759C84.901 16.759 83.6094 17.7099 83.6094 19.7959V22.5768C83.6094 24.4425 84.8337 25.3786 86.6994 25.3786C88.073 25.3791 88.9042 24.9351 89.8884 24.2741ZM87.9516 19.2578V20.2978H85.3619V19.377C85.3619 18.6301 86.0028 18.2064 86.7503 18.2064C87.208 18.2069 87.9516 18.5137 87.9516 19.2578Z" fill="#231F20"/>
<path d="M63.0109 31.0825H61.1228L59.4118 37.5772C59.4118 37.5772 59.4293 37.0857 59.2253 36.3907L57.7697 31.0825L55.8477 31.0989C55.8477 31.0989 58.0863 38.1787 58.6129 39.4166C58.3559 40.5129 57.7577 41.2412 56.4913 41.361L56.6564 42.6295C58.579 42.6252 59.6699 41.5928 60.0658 40.3166L63.0109 31.0825Z" fill="#231F20"/>
<path d="M70.9293 39.4369V31.0825H69.2271V34.3463H65.7854V31.0825H64.0996V39.4369H65.7854V35.7767H69.2271V39.4369H70.9293Z" fill="#231F20"/>
<path d="M79.5161 39.4369V31.0825H77.8144L74.3717 36.7795V31.0825H72.6875V39.4369H74.3717H74.3897L77.8144 33.7672V39.4369H79.5161Z" fill="#231F20"/>
<path d="M81.2754 39.4369V31.0825H84.2594C86.311 31.0825 86.9519 32.3319 86.9218 33.2866C86.8928 34.2413 86.3629 34.7219 85.9014 34.9603C86.4154 35.1036 87.3215 35.7455 87.3204 36.9523C87.3188 38.1568 86.4275 39.4374 84.3775 39.4374H81.2754V39.4369ZM83.0104 32.5326V34.3364H84.2583C84.9527 34.3364 85.1425 33.8629 85.1397 33.4452C85.1359 33.0274 84.874 32.5315 84.2851 32.5315L83.0104 32.5326ZM83.0104 37.9862L84.4704 37.9879C85.2365 37.989 85.5405 37.376 85.5411 36.8172C85.5416 36.2578 85.2196 35.7608 84.4431 35.7608H83.0104V37.9862Z" fill="#231F20"/>
<path d="M119.285 31.0825V32.514H121.397L121.396 39.4576H121.506H123.095H123.206L123.205 32.514H125.317V31.0825H119.285Z" fill="#231F20"/>
<path d="M133.164 31.0825V32.514H135.276L135.275 39.4576H135.385H136.974H137.084L137.083 32.514H139.194V31.0825H133.164Z" fill="#231F20"/>
<path d="M118.025 39.4369V31.0825H116.323L112.881 36.7795V31.0825H111.195V39.4369H112.881H112.898L116.323 33.7672V39.4369H118.025Z" fill="#231F20"/>
<path d="M102.666 36.6637V33.78C102.666 31.9646 101.697 30.9307 99.8981 30.9307C99.2201 30.9307 98.0526 31.2019 97.5764 31.5917C97.4238 31.3326 97.2674 31.063 96.9169 30.9339L95.8457 31.9209C96.2525 32.1926 96.2657 32.7279 96.2657 32.9647V42.1283H98.0012V39.2079C98.5278 39.466 99.3563 39.5677 99.7631 39.5677C101.391 39.5671 102.666 38.5468 102.666 36.6637ZM100.913 36.8441C100.913 37.573 100.186 38.0148 99.5258 38.0148C98.9822 38.0148 98.3408 37.795 98.0012 37.5566V33.208V33.0555C98.3911 32.664 99.1692 32.4447 99.6275 32.4447C100.289 32.4447 100.914 32.9204 100.914 33.6493V36.8441H100.913Z" fill="#231F20"/>
<path d="M110.089 38.479L109.377 37.2182C108.392 37.9142 107.799 38.1176 107.307 38.1176C106.612 38.1176 105.92 37.7611 105.92 37.0317V33.7838C105.92 33.0391 106.612 32.5125 107.409 32.5125C107.918 32.5125 108.613 32.8182 109.122 33.3606L110.021 32.2189C109.411 31.4725 108.545 30.9307 107.206 30.9307C105.493 30.9307 104.166 31.9816 104.166 33.7969V36.9355C104.166 38.7158 105.543 39.5496 107.239 39.5496C108.646 39.5496 109.598 38.8858 110.089 38.479Z" fill="#231F20"/>
<path d="M132.483 38.4446L131.751 37.1345C130.92 37.8125 130.108 38.0329 129.429 38.0329C128.598 38.0329 127.957 37.5741 127.957 36.6746V35.9004H132.299V33.8642C132.299 31.7443 130.956 30.9307 129.345 30.9307C127.496 30.9307 126.205 31.881 126.205 33.9664V36.749C126.205 38.6141 127.428 39.5502 129.294 39.5502C130.668 39.5496 131.498 39.1046 132.483 38.4446ZM130.546 33.4284V34.4678H127.956V33.5476C127.956 32.8001 128.597 32.3764 129.344 32.3764C129.802 32.3764 130.546 32.6831 130.546 33.4284Z" fill="#231F20"/>
<path d="M94.8352 38.4446L94.103 37.1345C93.2724 37.8125 92.4604 38.0329 91.7812 38.0329C90.9501 38.0329 90.3092 37.5741 90.3092 36.6746V35.9004H94.6514V33.8642C94.6514 31.7443 93.3085 30.9307 91.6976 30.9307C89.8482 30.9307 88.5566 31.881 88.5566 33.9664V36.749C88.5566 38.6141 89.7804 39.5502 91.6462 39.5502C93.0198 39.5496 93.8515 39.1046 94.8352 38.4446ZM92.8984 33.4284V34.4678H90.3086V33.5476C90.3086 32.8001 90.9495 32.3764 91.697 32.3764C92.1547 32.3764 92.8984 32.6831 92.8984 33.4284Z" fill="#231F20"/>
<path d="M59.0293 48.9456L58.6235 49.6772L57.1794 52.1213H56.5396V47.7913H57.1794V50.9665L57.2253 50.9845L57.6764 50.1906L59.0741 47.7913H59.7051V52.1213H59.0741V48.9456H59.0293ZM61.2034 52.1213H60.5625V47.7913H61.4467L62.3845 49.9298L62.5469 50.2628L62.6918 49.9205L63.6203 47.7913H64.4963V52.1213H63.8549V48.8018L63.774 48.9549L62.7547 51.1289H62.3129L61.2838 48.9549L61.2028 48.8018V52.1213H61.2034ZM66.0017 50.1097C66.0017 50.2896 66.011 50.4716 66.0285 50.6554C66.046 50.8385 66.0946 51.0037 66.1734 51.1513C66.2516 51.2989 66.3653 51.4181 66.5157 51.5116C66.6661 51.6057 66.8766 51.6522 67.1467 51.6522C67.3326 51.6522 67.5284 51.6352 67.7334 51.603C67.9374 51.569 68.1545 51.5089 68.3836 51.417L68.5816 51.9228C68.3896 52.0141 68.1709 52.0896 67.9281 52.1525C67.6842 52.2159 67.4152 52.2471 67.121 52.2471C66.7355 52.2471 66.4216 52.1913 66.1783 52.0765C65.9344 51.9622 65.7425 51.8036 65.6014 51.603C65.4603 51.4017 65.3636 51.1628 65.3122 50.885C65.2608 50.6083 65.2356 50.3109 65.2356 49.9921C65.2356 49.8002 65.2531 49.57 65.2897 49.3021C65.3247 49.0347 65.4018 48.7793 65.5188 48.536C65.637 48.2916 65.807 48.0844 66.029 47.9127C66.2521 47.7421 66.5518 47.6568 66.9318 47.6568C67.3337 47.6568 67.6498 47.7241 67.8789 47.8591C68.1069 47.9947 68.2781 48.1741 68.3924 48.3999C68.5066 48.6252 68.5772 48.8876 68.6045 49.1845C68.6319 49.482 68.6444 49.7909 68.6444 50.1091H66.0017V50.1097ZM66.94 48.243C66.7776 48.243 66.6376 48.284 66.5212 48.3649C66.4036 48.4458 66.3063 48.5492 66.2281 48.6749C66.1488 48.8012 66.0925 48.9407 66.0564 49.0899C66.0197 49.2392 66.0022 49.3879 66.0022 49.5323H67.8871C67.8871 49.3458 67.8734 49.1741 67.8466 49.0183C67.8193 48.8614 67.7701 48.7263 67.6984 48.6126C67.6263 48.4978 67.5284 48.4075 67.4043 48.3419C67.2807 48.2752 67.1265 48.243 66.94 48.243ZM71.8285 50.1633H69.9612V52.1213H69.276V47.7913H69.9612V49.5859H71.8285V47.7913H72.5235V52.1213H71.8285V50.1633ZM75.8252 48.9456L75.4189 49.6772L73.9753 52.1213H73.335V47.7913H73.9753V50.9665L74.0207 50.9845L74.4707 50.1906L75.8689 47.7913H76.5005V52.1213H75.8689V48.9456H75.8252ZM81.8948 48.3775H80.1538V52.1213H79.4506V47.7913H82.598V52.1213H81.8943V48.3775H81.8948ZM84.1401 50.1097C84.1401 50.2896 84.1499 50.4716 84.1674 50.6554C84.1855 50.8385 84.2336 51.0037 84.3118 51.1513C84.3894 51.2989 84.5037 51.4181 84.6541 51.5116C84.8044 51.6057 85.015 51.6522 85.2862 51.6522C85.4716 51.6522 85.6673 51.6352 85.8718 51.603C86.0758 51.569 86.2929 51.5089 86.522 51.417L86.7205 51.9228C86.5285 52.0141 86.3093 52.0896 86.0665 52.1525C85.8226 52.2159 85.5541 52.2471 85.2594 52.2471C84.8739 52.2471 84.56 52.1913 84.3156 52.0765C84.0723 51.9622 83.8809 51.8036 83.7392 51.603C83.5976 51.4017 83.5014 51.1628 83.45 50.885C83.3991 50.6083 83.3729 50.3109 83.3729 49.9921C83.3729 49.8002 83.392 49.57 83.4276 49.3021C83.4642 49.0347 83.5408 48.7793 83.6578 48.536C83.7748 48.2916 83.9443 48.0844 84.1669 47.9127C84.3889 47.7421 84.6902 47.6568 85.0686 47.6568C85.471 47.6568 85.7871 47.7241 86.0162 47.8591C86.2448 47.9947 86.4159 48.1741 86.5302 48.3999C86.6445 48.6252 86.7156 48.8876 86.7429 49.1845C86.7691 49.482 86.7823 49.7909 86.7823 50.1091H84.1401V50.1097ZM85.0784 48.243C84.9165 48.243 84.7766 48.284 84.6595 48.3649C84.5425 48.4458 84.4446 48.5492 84.3664 48.6749C84.2883 48.8012 84.2308 48.9407 84.1953 49.0899C84.1592 49.2392 84.1406 49.3879 84.1406 49.5323H86.0255C86.0255 49.3458 86.0124 49.1741 85.9856 49.0183C85.9588 48.8614 85.909 48.7263 85.8368 48.6126C85.7646 48.4978 85.6673 48.4075 85.5443 48.3419C85.4202 48.2752 85.2654 48.243 85.0784 48.243ZM88.029 47.7913L88.2002 48.2435L88.642 47.9635C88.9362 47.7711 89.1806 47.6748 89.3725 47.6748C89.6667 47.6748 89.9073 47.7416 90.0949 47.8728C90.2808 48.0056 90.4284 48.1795 90.5362 48.3961C90.6439 48.6131 90.7182 48.8603 90.7571 49.1413C90.7964 49.4196 90.8167 49.7034 90.8167 49.9927C90.8167 50.2387 90.7964 50.4968 90.7571 50.7636C90.7182 51.0316 90.6411 51.2743 90.528 51.4941C90.4131 51.7134 90.2551 51.896 90.0533 52.0398C89.8515 52.1847 89.5896 52.2564 89.2643 52.2564C89.1259 52.2564 88.9608 52.2252 88.7688 52.1623C88.5758 52.0989 88.3894 51.9884 88.2089 51.8326V53.9159H87.5052V47.7913H88.029ZM88.2095 51.282C88.3483 51.3722 88.5069 51.4602 88.6874 51.5488C88.8673 51.6352 89.057 51.6795 89.2555 51.6795C89.4546 51.6795 89.6082 51.6172 89.7198 51.4941C89.8308 51.3711 89.9122 51.2224 89.9642 51.0474C90.0145 50.8735 90.0451 50.6904 90.0539 50.4984C90.0632 50.306 90.0675 50.1403 90.0675 50.002C90.0675 49.7247 90.055 49.4825 90.0309 49.2753C90.0074 49.068 89.9642 48.8958 89.9008 48.7564C89.8373 48.618 89.752 48.5131 89.6438 48.4414C89.5355 48.3693 89.3939 48.3326 89.2194 48.3326C89.1303 48.3326 89.0362 48.3479 88.9411 48.3775C88.8443 48.4081 88.7519 48.4475 88.6655 48.495C88.578 48.5426 88.4954 48.5956 88.4172 48.653C88.3391 48.7099 88.2702 48.7651 88.2095 48.8193V51.282ZM94.8385 50.8577C94.8385 51.2186 94.7182 51.5193 94.4776 51.7599C94.2381 51.9994 93.8952 52.1208 93.4496 52.1208H91.6369V47.7908H93.3686C93.7481 47.7908 94.0582 47.8793 94.3021 48.0565C94.5454 48.2348 94.6673 48.5071 94.6673 48.8734C94.6673 49.0659 94.6203 49.2518 94.5274 49.4322C94.4338 49.6132 94.2796 49.7444 94.0626 49.8297C94.3387 49.8959 94.5372 50.0156 94.6569 50.1901C94.7789 50.365 94.8385 50.587 94.8385 50.8577ZM94.1528 50.8484C94.1528 50.5963 94.0801 50.4131 93.9324 50.2983C93.7848 50.184 93.5808 50.1272 93.3238 50.1272H92.3035V51.5259H93.3861C93.4769 51.5259 93.5671 51.5149 93.6563 51.4936C93.7481 51.4728 93.8274 51.4345 93.9007 51.3815C93.9729 51.3268 94.033 51.2563 94.0806 51.1693C94.1287 51.0819 94.1528 50.9752 94.1528 50.8484ZM93.9729 48.9193C93.9729 48.8105 93.9494 48.7214 93.9045 48.653C93.8597 48.5836 93.8039 48.53 93.7378 48.4906C93.6721 48.4502 93.6016 48.4239 93.5305 48.4086C93.4578 48.3939 93.3954 48.3862 93.3413 48.3862H92.3029V49.5585H93.2954C93.7481 49.5591 93.9729 49.3458 93.9729 48.9193ZM97.221 52.2465C96.9082 52.2465 96.6419 52.188 96.4226 52.0705C96.2022 51.9534 96.0234 51.7932 95.8851 51.5882C95.7473 51.3842 95.6461 51.1431 95.5838 50.867C95.5204 50.5903 95.4892 50.2918 95.4892 49.9741C95.4892 49.6728 95.5176 49.3841 95.5789 49.1036C95.6385 48.8247 95.7391 48.577 95.8813 48.3649C96.0223 48.1505 96.2055 47.9805 96.4308 47.8547C96.6561 47.7279 96.9322 47.665 97.257 47.665C97.5747 47.665 97.8471 47.7241 98.0723 47.8411C98.2987 47.9586 98.4814 48.1199 98.623 48.3239C98.7641 48.5284 98.8658 48.7684 98.9292 49.0456C98.9932 49.3218 99.0233 49.6165 99.0233 49.9298C99.0233 50.242 98.9932 50.5378 98.9292 50.8172C98.8663 51.0972 98.763 51.3438 98.6181 51.5576C98.4743 51.7714 98.2878 51.9392 98.0592 52.0628C97.8307 52.1853 97.5512 52.2465 97.221 52.2465ZM97.2576 48.243C97.0525 48.243 96.8852 48.2861 96.7562 48.3731C96.6271 48.46 96.5243 48.5792 96.4489 48.7296C96.3745 48.8794 96.322 49.0555 96.2919 49.2567C96.2618 49.4585 96.2465 49.6706 96.2465 49.8926C96.2465 50.1518 96.2618 50.3891 96.2919 50.6051C96.3225 50.8221 96.375 51.0102 96.4489 51.1693C96.5243 51.329 96.6271 51.452 96.7562 51.539C96.8858 51.6265 97.0531 51.6697 97.2576 51.6697C97.4539 51.6697 97.619 51.6281 97.7481 51.5439C97.8771 51.4591 97.9794 51.3405 98.0549 51.1874C98.1298 51.0348 98.1844 50.8489 98.2173 50.6324C98.2495 50.4159 98.2665 50.1791 98.2665 49.9205C98.2665 49.6979 98.2517 49.4858 98.2216 49.2846C98.1905 49.0828 98.1374 48.9057 98.0592 48.7531C97.981 48.5984 97.8766 48.4764 97.7475 48.3829C97.619 48.2894 97.4539 48.243 97.2576 48.243ZM100.485 52.1213H99.7904V47.7913H102.442V48.3868H100.485V52.1213ZM104.553 52.2465C104.24 52.2465 103.974 52.188 103.755 52.0705C103.536 51.9534 103.356 51.7932 103.218 51.5882C103.08 51.3842 102.978 51.1431 102.915 50.867C102.852 50.5903 102.821 50.2918 102.821 49.9741C102.821 49.6728 102.85 49.3841 102.911 49.1036C102.972 48.8247 103.072 48.577 103.214 48.3649C103.355 48.1505 103.538 47.9805 103.763 47.8547C103.989 47.7279 104.264 47.665 104.589 47.665C104.909 47.665 105.179 47.7241 105.405 47.8411C105.63 47.9586 105.814 48.1199 105.956 48.3239C106.097 48.5284 106.199 48.7684 106.262 49.0456C106.326 49.3218 106.357 49.6165 106.357 49.9298C106.357 50.242 106.326 50.5378 106.262 50.8172C106.199 51.0972 106.095 51.3438 105.951 51.5576C105.807 51.7714 105.621 51.9392 105.393 52.0628C105.165 52.1853 104.885 52.2465 104.553 52.2465ZM104.589 48.243C104.385 48.243 104.217 48.2861 104.088 48.3731C103.958 48.46 103.857 48.5792 103.782 48.7296C103.707 48.8794 103.655 49.0555 103.624 49.2567C103.594 49.4585 103.579 49.6706 103.579 49.8926C103.579 50.1518 103.594 50.3891 103.624 50.6051C103.655 50.8221 103.707 51.0102 103.782 51.1693C103.857 51.329 103.958 51.452 104.088 51.539C104.218 51.6265 104.385 51.6697 104.589 51.6697C104.788 51.6697 104.952 51.6281 105.081 51.5439C105.21 51.4591 105.313 51.3405 105.388 51.1874C105.463 51.0348 105.517 50.8489 105.551 50.6324C105.583 50.4159 105.599 50.1791 105.599 49.9205C105.599 49.6979 105.584 49.4858 105.555 49.2846C105.524 49.0828 105.471 48.9057 105.393 48.7531C105.314 48.5984 105.21 48.4764 105.081 48.3829C104.952 48.2894 104.788 48.243 104.589 48.243ZM112.419 46.6015H110.137V52.1213H109.379V45.9426H113.176V52.1213H112.418V46.6015H112.419ZM114.656 47.7913L114.828 48.2435L115.27 47.9635C115.564 47.7711 115.808 47.6748 116 47.6748C116.295 47.6748 116.536 47.7416 116.723 47.8728C116.908 48.0056 117.055 48.1795 117.164 48.3961C117.272 48.6131 117.346 48.8603 117.385 49.1413C117.424 49.4196 117.444 49.7034 117.444 49.9927C117.444 50.2387 117.424 50.4968 117.385 50.7636C117.346 51.0316 117.269 51.2743 117.155 51.4941C117.04 51.7134 116.882 51.896 116.682 52.0398C116.481 52.1847 116.217 52.2564 115.892 52.2564C115.754 52.2564 115.588 52.2252 115.395 52.1623C115.203 52.0989 115.017 51.9884 114.837 51.8326V53.9159H114.133V47.7913H114.656ZM114.837 51.282C114.975 51.3722 115.135 51.4602 115.314 51.5488C115.494 51.6352 115.685 51.6795 115.882 51.6795C116.081 51.6795 116.236 51.6172 116.347 51.4941C116.459 51.3711 116.54 51.2224 116.59 51.0474C116.642 50.8735 116.672 50.6904 116.682 50.4984C116.69 50.306 116.694 50.1403 116.694 50.002C116.694 49.7247 116.683 49.4825 116.659 49.2753C116.634 49.068 116.59 48.8958 116.528 48.7564C116.464 48.618 116.38 48.5131 116.27 48.4414C116.163 48.3693 116.022 48.3326 115.847 48.3326C115.756 48.3326 115.663 48.3479 115.567 48.3775C115.471 48.4081 115.38 48.4475 115.292 48.495C115.205 48.5426 115.122 48.5956 115.044 48.653C114.966 48.7099 114.897 48.7651 114.837 48.8193V51.282ZM118.843 50.1097C118.843 50.2896 118.85 50.4716 118.868 50.6554C118.886 50.8385 118.935 51.0037 119.013 51.1513C119.091 51.2989 119.206 51.4181 119.355 51.5116C119.505 51.6057 119.716 51.6522 119.986 51.6522C120.173 51.6522 120.368 51.6352 120.573 51.603C120.777 51.569 120.994 51.5089 121.222 51.417L121.421 51.9228C121.228 52.0141 121.01 52.0896 120.767 52.1525C120.523 52.2159 120.255 52.2471 119.96 52.2471C119.575 52.2471 119.26 52.1913 119.018 52.0765C118.774 51.9622 118.582 51.8036 118.441 51.603C118.3 51.4017 118.203 51.1628 118.153 50.885C118.101 50.6083 118.076 50.3109 118.076 49.9921C118.076 49.8002 118.093 49.57 118.13 49.3021C118.166 49.0347 118.242 48.7793 118.36 48.536C118.477 48.2916 118.647 48.0844 118.869 47.9127C119.091 47.7421 119.392 47.6568 119.772 47.6568C120.174 47.6568 120.49 47.7241 120.719 47.8591C120.947 47.9947 121.118 48.1741 121.233 48.3999C121.346 48.6252 121.417 48.8876 121.444 49.1845C121.47 49.482 121.485 49.7909 121.485 50.1091H118.843V50.1097ZM119.779 48.243C119.617 48.243 119.477 48.284 119.359 48.3649C119.242 48.4458 119.144 48.5492 119.066 48.6749C118.989 48.8012 118.931 48.9407 118.894 49.0899C118.858 49.2392 118.841 49.3879 118.841 49.5323H120.726C120.726 49.3458 120.712 49.1741 120.685 49.0183C120.659 48.8614 120.608 48.7263 120.537 48.6126C120.464 48.4978 120.367 48.4075 120.243 48.3419C120.12 48.2752 119.966 48.243 119.779 48.243ZM123.198 52.2203C122.886 52.2203 122.613 52.1825 122.381 52.1082C122.151 52.0322 121.944 51.9343 121.764 51.8151L122.026 51.3635C122.181 51.4416 122.357 51.5067 122.553 51.5576C122.748 51.6079 122.943 51.6341 123.135 51.6341C123.424 51.6341 123.659 51.5729 123.844 51.4493C124.027 51.3257 124.118 51.1322 124.118 50.8675C124.118 50.7959 124.107 50.715 124.083 50.628C124.058 50.5411 124.015 50.4596 123.951 50.3853C123.889 50.3098 123.798 50.2469 123.681 50.1955C123.564 50.1441 123.412 50.1195 123.226 50.1195H122.62V49.5771H123.28C123.785 49.5771 124.037 49.3398 124.037 48.8646C124.037 48.7936 124.027 48.7192 124.006 48.6437C123.985 48.5688 123.943 48.501 123.88 48.442C123.817 48.3807 123.731 48.3321 123.622 48.2927C123.515 48.2539 123.37 48.2347 123.189 48.2347C123.129 48.2347 123.056 48.2397 122.968 48.2517C122.881 48.2654 122.791 48.2851 122.696 48.3113C122.604 48.3386 122.509 48.3704 122.413 48.407C122.316 48.4425 122.228 48.4808 122.151 48.5229L121.899 48.0543C122.187 47.8985 122.45 47.7924 122.688 47.7388C122.926 47.6841 123.159 47.6579 123.388 47.6579C123.64 47.6579 123.852 47.6891 124.027 47.7519C124.202 47.8154 124.345 47.9012 124.457 48.0084C124.568 48.1166 124.647 48.244 124.695 48.3873C124.743 48.5322 124.767 48.6853 124.767 48.8477C124.767 49.1009 124.708 49.3043 124.591 49.4601C124.474 49.6165 124.318 49.734 124.127 49.8128C124.397 49.8964 124.585 50.0282 124.69 50.2086C124.796 50.3891 124.848 50.6023 124.848 50.8484C124.848 51.078 124.806 51.2776 124.722 51.4488C124.638 51.6199 124.521 51.7626 124.371 51.8774C124.22 51.9923 124.047 52.0776 123.848 52.1333C123.65 52.1918 123.433 52.2203 123.198 52.2203ZM128.167 48.9456L127.762 49.6772L126.319 52.1213H125.678V47.7913H126.319V50.9665L126.364 50.9845L126.815 50.1906L128.213 47.7913H128.844V52.1213H128.213V48.9456H128.167ZM130.992 48.3868L130.919 49.6137C130.907 49.8478 130.892 50.0605 130.874 50.2497C130.857 50.4383 130.831 50.6105 130.798 50.7636C130.763 50.9173 130.725 51.0573 130.68 51.1836C130.635 51.3093 130.579 51.4242 130.514 51.5264H132.471V48.3868H130.992ZM130.026 53.4205H129.377L129.359 51.5335L129.747 51.516C129.825 51.4378 129.894 51.3498 129.954 51.2497C130.015 51.1508 130.067 51.031 130.111 50.8894C130.157 50.7483 130.193 50.5761 130.22 50.3749C130.247 50.1737 130.269 49.9292 130.288 49.64L130.387 47.7908H133.157V51.533L133.598 51.5433L133.581 53.4199H132.949L132.931 52.1208H130.044L130.026 53.4205ZM134.816 50.1097C134.816 50.2896 134.825 50.4716 134.843 50.6554C134.86 50.8385 134.909 51.0037 134.988 51.1513C135.065 51.2989 135.18 51.4181 135.33 51.5116C135.482 51.6057 135.692 51.6522 135.962 51.6522C136.149 51.6522 136.344 51.6352 136.548 51.603C136.753 51.569 136.969 51.5089 137.197 51.417L137.396 51.9228C137.203 52.0141 136.986 52.0896 136.743 52.1525C136.499 52.2159 136.23 52.2471 135.935 52.2471C135.55 52.2471 135.236 52.1913 134.993 52.0765C134.749 51.9622 134.557 51.8036 134.416 51.603C134.275 51.4017 134.178 51.1628 134.126 50.885C134.076 50.6083 134.051 50.3109 134.051 49.9921C134.051 49.8002 134.068 49.57 134.104 49.3021C134.141 49.0347 134.217 48.7793 134.335 48.536C134.451 48.2916 134.621 48.0844 134.844 47.9127C135.066 47.7421 135.367 47.6568 135.746 47.6568C136.149 47.6568 136.464 47.7241 136.693 47.8591C136.921 47.9947 137.092 48.1741 137.207 48.3999C137.32 48.6252 137.392 48.8876 137.418 49.1845C137.445 49.482 137.459 49.7909 137.459 50.1091H134.816V50.1097ZM135.754 48.243C135.592 48.243 135.451 48.284 135.334 48.3649C135.217 48.4458 135.119 48.5492 135.041 48.6749C134.963 48.8012 134.907 48.9407 134.87 49.0899C134.834 49.2392 134.816 49.3879 134.816 49.5323H136.701C136.701 49.3458 136.687 49.1741 136.66 49.0183C136.634 48.8614 136.584 48.7263 136.512 48.6126C136.44 48.4978 136.342 48.4075 136.219 48.3419C136.096 48.2752 135.94 48.243 135.754 48.243ZM140.643 50.1633H138.775V52.1213H138.09V47.7913H138.775V49.5859H140.643V47.7913H141.337V52.1213H140.643V50.1633ZM143.728 52.1213H143.033V48.3775H141.861V47.7913H144.937V48.3775H143.728V52.1213ZM148.743 52.0759C148.647 52.1109 148.544 52.1437 148.436 52.1705C148.327 52.1973 148.222 52.2104 148.121 52.2104C147.995 52.2104 147.896 52.188 147.827 52.1432C147.759 52.0978 147.702 51.9972 147.66 51.8408L147.615 51.6697L147.147 51.9759C147.002 52.0732 146.879 52.1393 146.777 52.1743C146.675 52.211 146.579 52.2285 146.488 52.2285C146.206 52.2285 145.983 52.1847 145.821 52.0945C145.659 52.0037 145.535 51.8944 145.451 51.7643C145.367 51.6352 145.313 51.4974 145.289 51.3503C145.265 51.2033 145.253 51.0709 145.253 50.9577C145.253 50.6865 145.313 50.4569 145.433 50.2677C145.554 50.0785 145.719 49.9227 145.929 49.8035C146.141 49.6826 146.389 49.5952 146.678 49.5372C146.966 49.4792 147.279 49.4481 147.615 49.4421V49.1085C147.615 48.8493 147.56 48.6503 147.449 48.5092C147.338 48.3676 147.126 48.2965 146.813 48.2965C146.591 48.2965 146.386 48.32 146.2 48.3687C146.013 48.4168 145.843 48.4677 145.685 48.5213L145.523 48.0352C145.728 47.9209 145.948 47.8296 146.187 47.7645C146.424 47.6989 146.666 47.665 146.913 47.665C147.429 47.665 147.793 47.7815 148.004 48.0122C148.214 48.244 148.32 48.553 148.32 48.9368V51.6254H148.743V52.0759H148.743ZM147.615 49.956C147.466 49.956 147.294 49.9664 147.101 49.9872C146.908 50.0091 146.727 50.0539 146.555 50.1228C146.384 50.1922 146.24 50.289 146.123 50.4115C146.006 50.5345 145.946 50.7018 145.946 50.9129C145.946 51.1409 145.99 51.3159 146.078 51.4389C146.165 51.5625 146.323 51.6254 146.552 51.6254C146.623 51.6254 146.709 51.6079 146.807 51.5745C146.907 51.5412 147.007 51.498 147.11 51.4444C147.212 51.3897 147.309 51.3323 147.398 51.2727C147.489 51.2131 147.561 51.1551 147.614 51.1015V49.956H147.615ZM57.2969 57.9714V60.568H56.5391V54.3899H58.0909C58.2654 54.3899 58.4611 54.4036 58.6777 54.4298C58.8942 54.4577 59.0987 54.5283 59.2906 54.6431C59.4837 54.7574 59.6439 54.9285 59.774 55.1576C59.902 55.3862 59.9676 55.7017 59.9676 56.1041C59.9676 56.483 59.9069 56.7941 59.7877 57.0375C59.6679 57.2813 59.5121 57.4711 59.3223 57.6099C59.1331 57.7483 58.9199 57.8429 58.682 57.8943C58.4442 57.9462 58.2079 57.9714 57.9745 57.9714H57.2969ZM57.2969 55.0488V57.3223H57.9553C58.1172 57.3223 58.2763 57.3092 58.4289 57.2851C58.582 57.2616 58.7159 57.2086 58.8308 57.1266C58.9439 57.0462 59.0364 56.9265 59.1053 56.7668C59.1747 56.6082 59.2097 56.3922 59.2097 56.1221C59.2097 55.875 59.1736 55.6803 59.1014 55.5354C59.0293 55.3916 58.9379 55.2834 58.8264 55.2112C58.7148 55.1396 58.5913 55.0942 58.4567 55.0761C58.3211 55.0592 58.1899 55.0488 58.0641 55.0488H57.2969ZM61.9963 60.6938C61.6835 60.6938 61.4183 60.6369 61.1985 60.5188C60.9786 60.4018 60.7993 60.2405 60.6615 60.0366C60.5232 59.831 60.422 59.5909 60.3586 59.3143C60.2962 59.0381 60.264 58.7412 60.264 58.4214C60.264 58.1212 60.294 57.8308 60.3547 57.5514C60.4149 57.2726 60.5149 57.0249 60.6566 56.8111C60.7977 56.5978 60.9814 56.4283 61.2061 56.302C61.4325 56.1763 61.7081 56.1128 62.0324 56.1128C62.3517 56.1128 62.6235 56.1713 62.8482 56.2889C63.0746 56.4059 63.2572 56.5661 63.3988 56.7712C63.5405 56.9757 63.6427 57.2168 63.7051 57.4929C63.7685 57.7691 63.7997 58.0632 63.7997 58.3765C63.7997 58.6898 63.7685 58.9857 63.7051 59.2645C63.6427 59.5445 63.5383 59.7911 63.395 60.0049C63.2507 60.2181 63.0637 60.3865 62.8356 60.5101C62.6071 60.6326 62.3271 60.6938 61.9963 60.6938ZM62.0324 56.6902C61.8284 56.6902 61.6616 56.734 61.5315 56.8204C61.403 56.9079 61.2996 57.0276 61.2247 57.1774C61.1503 57.3267 61.0968 57.5039 61.0678 57.7056C61.0377 57.9068 61.0218 58.119 61.0218 58.3415C61.0218 58.6002 61.0377 58.838 61.0678 59.0545C61.0973 59.2711 61.1509 59.4586 61.2247 59.6183C61.3002 59.7768 61.403 59.8999 61.5315 59.9874C61.6616 60.0743 61.8284 60.118 62.0324 60.118C62.2309 60.118 62.3944 60.0759 62.5245 59.9923C62.653 59.9081 62.7552 59.7889 62.8307 59.6347C62.9056 59.4816 62.9603 59.2973 62.9931 59.0808C63.0259 58.8643 63.0423 58.627 63.0423 58.3678C63.0423 58.1452 63.0276 57.9342 62.998 57.733C62.9674 57.5317 62.9138 57.3546 62.8356 57.1998C62.7574 57.0467 62.653 56.9237 62.5245 56.8308C62.3949 56.7362 62.2309 56.6902 62.0324 56.6902ZM66.1909 60.6938C65.6495 60.6938 65.2285 60.5013 64.9283 60.1137C64.6275 59.726 64.4766 59.2005 64.4766 58.5395C64.4766 58.1666 64.5193 57.8303 64.6035 57.5296C64.6877 57.2288 64.808 56.9729 64.9644 56.7624C65.1202 56.5525 65.3105 56.3906 65.5325 56.2807C65.7556 56.1686 66.0044 56.1134 66.2811 56.1134C66.5452 56.1134 66.7935 56.138 67.0253 56.1894C67.2566 56.2413 67.4595 56.3168 67.6339 56.4196L67.4628 56.9254C67.3184 56.8772 67.1473 56.8308 66.9488 56.7854C66.7503 56.74 66.5425 56.717 66.3265 56.717C65.9465 56.717 65.6709 56.8712 65.4964 57.1774C65.322 57.4842 65.2351 57.8932 65.2351 58.4039C65.2351 58.6084 65.2487 58.8123 65.2755 59.0135C65.3023 59.2142 65.3548 59.3957 65.4335 59.5538C65.5112 59.7134 65.6173 59.8425 65.7496 59.9431C65.8814 60.0409 66.0558 60.0913 66.2718 60.0913C66.5004 60.0913 66.7169 60.0661 66.9214 60.0142C67.1259 59.9633 67.3157 59.9042 67.4907 59.8381L67.67 60.3614C67.4907 60.4581 67.284 60.5374 67.0521 60.5998C66.8203 60.6626 66.5337 60.6938 66.1909 60.6938ZM69.7539 60.6938C69.2126 60.6938 68.7915 60.5013 68.4913 60.1137C68.1911 59.726 68.0402 59.2005 68.0402 58.5395C68.0402 58.1666 68.0818 57.8303 68.166 57.5296C68.2502 57.2288 68.3705 56.9729 68.5274 56.7624C68.6827 56.5525 68.8725 56.3906 69.0956 56.2807C69.3176 56.1686 69.5669 56.1134 69.8436 56.1134C70.1077 56.1134 70.3565 56.138 70.5878 56.1894C70.8191 56.2413 71.0225 56.3168 71.1964 56.4196L71.0258 56.9254C70.8815 56.8772 70.7092 56.8308 70.5113 56.7854C70.3128 56.74 70.105 56.717 69.889 56.717C69.5095 56.717 69.2334 56.8712 69.0589 57.1774C68.8845 57.4842 68.797 57.8932 68.797 58.4039C68.797 58.6084 68.8107 58.8123 68.838 59.0135C68.8643 59.2142 68.9173 59.3957 68.9955 59.5538C69.0731 59.7134 69.1792 59.8425 69.311 59.9431C69.4433 60.0409 69.6178 60.0913 69.8338 60.0913C70.0629 60.0913 70.2794 60.0661 70.4839 60.0142C70.6884 59.9633 70.8765 59.9042 71.0521 59.8381L71.2325 60.3614C71.0521 60.4581 70.8454 60.5374 70.6141 60.5998C70.3844 60.6626 70.0968 60.6938 69.7539 60.6938ZM74.1738 57.3945L73.7681 58.1245L72.324 60.568H71.6842V56.2402H72.324V59.4143L72.3699 59.4313L72.821 58.639L74.2187 56.2402H74.8502V60.568H74.2187V57.3945H74.1738ZM78.1699 57.3945L77.7637 58.1245L76.3212 60.568H75.6803V56.2402H76.3212V59.4143L76.366 59.4313L76.8171 58.639L78.2159 56.2402H78.8469V60.568H78.2159V57.3945H78.1699ZM82.0031 54.3899H85.1604V55.0488H82.761V56.9882H83.8978C84.0657 56.9882 84.2582 57.009 84.4753 57.0522C84.6913 57.0938 84.8958 57.1774 85.0882 57.3037C85.2807 57.4306 85.4431 57.6094 85.5755 57.8407C85.7072 58.0725 85.7734 58.3776 85.7734 58.756C85.7734 59.13 85.7034 59.4318 85.5618 59.6675C85.4207 59.9021 85.249 60.0847 85.0478 60.217C84.846 60.3493 84.6317 60.4406 84.4031 60.492C84.174 60.544 83.9727 60.5686 83.7989 60.5686H82.0042V54.3899H82.0031ZM83.771 59.9283C83.8978 59.9283 84.034 59.9086 84.1816 59.8698C84.3293 59.8304 84.4638 59.7659 84.5874 59.6757C84.7109 59.5855 84.8132 59.463 84.8947 59.3104C84.9751 59.1568 85.0161 58.966 85.0161 58.7369C85.0161 58.5149 84.9767 58.3333 84.899 58.1917C84.8208 58.0506 84.7175 57.9386 84.5874 57.8587C84.4578 57.7767 84.3123 57.7198 84.1505 57.6876C83.9875 57.6537 83.8256 57.6378 83.6638 57.6378H82.761V59.9283H83.771ZM87.0726 60.6588C86.9173 60.6588 86.7839 60.603 86.6762 60.4909C86.5674 60.38 86.5138 60.246 86.5138 60.0907C86.5138 59.9338 86.5674 59.7998 86.6762 59.6894C86.7834 59.5784 86.9173 59.522 87.0726 59.522C87.229 59.522 87.3635 59.5778 87.4745 59.6894C87.5861 59.7998 87.6419 59.9338 87.6419 60.0907C87.6419 60.246 87.5861 60.3805 87.4745 60.4909C87.3635 60.603 87.229 60.6588 87.0726 60.6588ZM92.3313 57.6827H89.9593V60.5675H89.2008V54.3899H89.9593V57.0325H92.3313V54.3899H93.0887V60.568H92.3313V57.6827ZM94.5503 60.6588C94.3934 60.6588 94.2627 60.603 94.1528 60.4909C94.0445 60.38 93.9909 60.246 93.9909 60.0907C93.9909 59.9338 94.0445 59.7998 94.1528 59.6894C94.2621 59.5784 94.3934 59.522 94.5503 59.522C94.7067 59.522 94.8407 59.5778 94.9517 59.6894C95.0627 59.7998 95.1179 59.9338 95.1179 60.0907C95.1179 60.246 95.0627 60.3805 94.9517 60.4909C94.8401 60.603 94.7067 60.6588 94.5503 60.6588ZM96.7332 54.3899H99.9168V55.0488H97.4725V57.015H99.628V57.6646H97.4725V59.9103H99.9168V60.5675H96.7332V54.3899ZM101.613 56.8346V57.827C101.613 58.2781 101.595 58.6625 101.559 58.9807C101.524 59.3006 101.458 59.5718 101.365 59.7971C101.272 60.0224 101.148 60.2126 100.99 60.3652C100.834 60.5188 100.636 60.6566 100.396 60.7758L100.134 60.2892C100.32 60.1503 100.469 60.0136 100.58 59.8786C100.691 59.7435 100.777 59.5882 100.837 59.4143C100.897 59.2394 100.937 59.036 100.954 58.8008C100.972 58.5668 100.981 58.2803 100.981 57.944V56.2397H103.678V60.5675H102.984V56.8346H101.613ZM106.367 59.9731C106.445 59.9731 106.53 59.9611 106.624 59.9365C106.717 59.913 106.803 59.8725 106.882 59.8151C106.96 59.7566 107.025 59.6839 107.08 59.5942C107.134 59.5035 107.16 59.3886 107.16 59.2508C107.16 59.1245 107.137 59.019 107.093 58.9353C107.047 58.8506 106.987 58.7844 106.908 58.7325C106.83 58.6822 106.74 58.6445 106.637 58.6198C106.535 58.5963 106.428 58.5843 106.313 58.5843H105.338V59.9731H106.367ZM104.663 56.2397H105.338V58.0074H106.457C106.601 58.0074 106.752 58.0233 106.912 58.0567C107.071 58.09 107.219 58.1513 107.358 58.2415C107.496 58.3317 107.611 58.4585 107.702 58.6204C107.792 58.7828 107.837 58.996 107.837 59.2601C107.837 59.5013 107.789 59.7036 107.698 59.8693C107.604 60.0355 107.486 60.17 107.346 60.2744C107.205 60.3805 107.051 60.456 106.886 60.5013C106.72 60.5451 106.565 60.5675 106.421 60.5675H104.663V56.2397ZM109.307 59.9731H111.138V56.2397H111.824V59.9649L112.292 59.9813L112.274 61.8585H111.652L111.634 60.5675H108.613V56.2397H109.307V59.9731ZM115.378 57.3945L114.972 58.1245L113.528 60.568H112.887V56.2402H113.528V59.4143L113.573 59.4313L114.025 58.639L115.423 56.2402H116.054V60.568H115.423V57.3945H115.378ZM119.437 58.6111H117.57V60.5675H116.884V56.2397H117.57V58.0337H119.437V56.2397H120.131V60.5675H119.437V58.6111Z" fill="#231F20"/>
<path d="M124.317 60.5232C124.221 60.5593 124.119 60.591 124.01 60.6184C123.903 60.6452 123.797 60.6594 123.695 60.6594C123.568 60.6594 123.47 60.637 123.401 60.591C123.333 60.5457 123.277 60.445 123.235 60.2903L123.19 60.1186L122.72 60.4248C122.575 60.5216 122.452 60.5867 122.351 60.6233C122.248 60.6599 122.152 60.678 122.062 60.678C121.779 60.678 121.557 60.632 121.394 60.5424C121.232 60.4511 121.108 60.3422 121.024 60.2132C120.939 60.0831 120.886 59.9453 120.862 59.7976C120.838 59.6506 120.826 59.5204 120.826 59.4056C120.826 59.1355 120.886 58.9048 121.007 58.715C121.127 58.5253 121.292 58.3711 121.503 58.2513C121.713 58.1316 121.963 58.0419 122.251 57.9851C122.539 57.9271 122.852 57.8959 123.19 57.8899V57.5558C123.19 57.2977 123.134 57.0982 123.023 56.956C122.911 56.8149 122.699 56.7449 122.386 56.7449C122.164 56.7449 121.959 56.7685 121.773 56.8177C121.586 56.8652 121.415 56.9161 121.258 56.9708L121.096 56.4841C121.301 56.3688 121.521 56.2791 121.759 56.2135C121.996 56.1468 122.238 56.1145 122.485 56.1145C123.004 56.1145 123.367 56.2299 123.577 56.4617C123.787 56.6925 123.892 57.0008 123.892 57.3858V60.0732H124.316V60.5232H124.317ZM123.19 58.4033C123.039 58.4033 122.868 58.4143 122.675 58.4356C122.482 58.4564 122.3 58.5012 122.129 58.5712C121.958 58.6396 121.814 58.7358 121.697 58.8594C121.58 58.9824 121.521 59.1497 121.521 59.3597C121.521 59.5882 121.564 59.7648 121.651 59.8873C121.738 60.0104 121.896 60.0721 122.125 60.0721C122.196 60.0721 122.282 60.0557 122.382 60.0224C122.481 59.9901 122.581 59.9464 122.684 59.8922C122.786 59.8381 122.883 59.7812 122.973 59.7211C123.063 59.6615 123.135 59.6041 123.189 59.55V58.4033H123.19Z" fill="#231F20"/>
<path fill-rule="evenodd" clip-rule="evenodd" d="M6.25586 2.63221V2.63276C11.2789 2.63877 13.406 6.13656 15.6638 9.89516L34.1571 41.6054C35.0292 43.1884 35.8888 45.1005 35.8626 46.8923C35.7942 51.5558 29.7377 53.264 26.1145 53.4428C23.4625 53.5735 20.8421 52.9518 18.4832 51.8916L17.0112 53.7867C17.8686 57.4453 21.2555 61.8874 25.9095 61.854C33.993 61.7971 38.2385 54.4046 41.4882 48.3856L47.5081 37.2322L30.0346 7.27059C28.4193 4.58915 31.0697 2.64041 33.8853 2.62455L34.5273 0.141602H6.90055L6.25586 2.63221Z" fill="url(#paint0_linear_20002_128271)"/>
<defs>
<linearGradient id="paint0_linear_20002_128271" x1="26.8821" y1="-15.1878" x2="26.8821" y2="77.1897" gradientUnits="userSpaceOnUse">
<stop stop-color="#EB008B"/>
<stop offset="0.24" stop-color="#EC145A"/>
<stop offset="0.48" stop-color="#EC1C24"/>
<stop offset="0.74" stop-color="#F6921E"/>
<stop offset="1" stop-color="#FFF100"/>
</linearGradient>
</defs>
</svg>
